# xmcd
# 
# Track frame offsets:
#     150
#     23125
#     47575
#     78049
#     94856
# 
# Disc length: 1428
# 
# Revision: 0
# Processed by: cddbd v1.5.2PL0 Copyright (c) Steve Scherf et al.
# Submitted via: fre:ac v1.0.17
# 
DISCID=2c059205
DTITLE=Brian Meakin Band - Sun Session
DYEAR=2005
DGENRE=Rock
TTITLE0=TEXAS FLOOD
TTITLE1=THE THRILL IS GONE
TTITLE2=TIN PAN ALLEY
TTITLE3=PRIDE AND JOY
TTITLE4=JOHNNY B GOOD
EXTD=
EXTT0=
EXTT1=
EXTT2=
EXTT3=
EXTT4=
PLAYORDER=
